<?xml version="1.0" encoding="utf-8"?>
<!-- Generator: Adobe Illustrator 16.0.0, SVG Export Plug-In . SVG Version: 6.00 Build 0)  -->
<!DOCTYPE svg PUBLIC "-//W3C//DTD SVG 1.1//EN" "http://www.w3.org/Graphics/SVG/1.1/DTD/svg11.dtd">
<svg version="1.1" id="Layer_1" xmlns="http://www.w3.org/2000/svg" xmlns:xlink="http://www.w3.org/1999/xlink" x="0px" y="0px"
	 width="395.423px" height="269.498px" viewBox="0 0 395.423 269.498" enable-background="new 0 0 395.423 269.498"
	 xml:space="preserve">
<g>
	<path fill="#004362" d="M54.858,0l-7.962,38.857C55.898,25.258,66.489,12,78.578,0H54.858z"/>
	<path fill="#004362" d="M66.108,81.058c-9.34,20.826-14.083,41.931-14.083,62.705c0,15.976,2.845,31.093,8.458,45.188
		C65.333,201.141,72.191,212,80.902,222h38.826c-5.447-3-10.47-7.398-15.029-11.962c-21.943-21.938-32.356-51.789-29.296-84.138
		c1.512-15.976,6.216-31.932,13.981-47.5c8.019-16.089,19.099-31.223,32.921-45.058C135.48,20.167,150.401,9.556,166.649,1.62
		c1.212-0.598,2.418-1.62,3.638-1.62h-37.53c-8.514,6-16.654,13.113-24.336,20.802C90.058,39.164,75.817,59.369,66.108,81.058z"/>
	<path fill="#004362" d="M115.765,51h18.985c0.997-1,2.013-1.848,3.055-2.889c20.14-20.127,45.168-32.906,70.859-36.646L211.06,0
		h-20.704c-22.241,7-44.12,19.69-62.838,38.408C123.328,42.598,119.417,47,115.765,51z"/>
	<path fill="#004362" d="M234.07,144.188c13.189-13.193,20.452-28.361,20.452-42.737c0-11.06-4.188-21.079-12.107-29.01
		c-3.778-3.771-8.246-6.622-13.263-8.501l-2.541,12.432c2.508,1.371,4.795,3.061,6.799,5.067
		c6.943,6.946,10.296,16.483,9.468,26.871c-0.824,10.311-5.783,20.508-13.972,28.698c-4.972,4.971-10.874,8.92-17.095,11.6
		l-2.383,11.625C218.147,156.982,226.665,151.598,234.07,144.188z"/>
	<path fill="#004362" d="M261.886,101.452c0,16.331-8.024,33.365-22.607,47.943c-9.164,9.162-20.095,15.766-31.563,19.208
		l-2.8,13.663c14.768-3.924,29.338-12.508,41.683-24.864c32.051-32.044,36.904-75.53,11.275-101.168
		c-6.677-6.692-14.989-11.315-24.341-13.676l-2.902,14.146c6.463,2.235,12.246,5.804,16.984,10.54
		C256.957,76.576,261.886,88.398,261.886,101.452z"/>
	<path fill="#004362" d="M235.538,107.718c0.656-8.196-1.946-15.676-7.332-21.066c-0.977-0.972-2.034-1.848-3.161-2.623
		l-11.361,55.429c3.604-2.069,6.997-4.642,10.014-7.664C230.652,124.842,234.853,116.291,235.538,107.718z"/>
	<path fill="#004362" d="M22.122,205.777c-2.325-5.804-4.268-11.794-5.83-17.864L9.296,222h20.572
		C26.953,217,24.368,211.402,22.122,205.777z"/>
	<path fill="#004362" d="M44.66,143.77c0-21.822,4.959-43.949,14.724-65.733c10.083-22.497,24.833-43.432,43.829-62.435
		C108.813,9.995,114.643,5,120.673,0H89.055c-1.271,1-2.528,2.357-3.784,3.608c-17.55,17.549-31.912,36.572-42.826,56.814
		L20.127,169.388c1.575,11.729,4.521,22.903,8.832,33.67C31.6,209.675,34.744,216,38.363,222H71.29
		c-7.353-9-13.264-19.321-17.652-30.332C47.683,176.722,44.66,160.678,44.66,143.77z"/>
	<path fill="#004362" d="M65.029,258.066c-1.143,5.613-4.661,9.003-8.54,9.003c-2.407,0-4.642-1.113-4.667-4.022
		c-0.012-0.729,0.115-1.345,0.28-2.016L55.042,247h-2.686l-2.901,13.926c-0.197,1.008-0.324,1.787-0.324,2.473
		c0.044,4.228,2.882,6.1,6.724,6.1c3.295,0,6.178-2.498,7.829-4.498h0.083l-0.737,4h2.483l4.533-22h-2.686L65.029,258.066z"/>
	<polygon fill="#004362" points="8.622,241 26.153,241 26.68,238 6.209,238 0,269 20.864,269 21.391,266 3.435,266 5.892,254 
		22.222,254 22.755,252 6.375,252 	"/>
	<path fill="#004362" d="M46.597,238l-2.521,13h-0.088c-1.016-4-3.759-4.954-7.219-4.954c-7.41,0-11.988,7.481-11.924,14.242
		c0.051,5.393,2.807,9.179,8.463,9.179c3.886,0,6.134-1.467,7.987-4.467h0.095l-0.945,4h2.603l6.248-31H46.597z M33.55,266.952
		c-4.064,0-5.982-2.82-6.02-6.578c-0.05-5.392,3.086-12.222,9.289-12.222c3.93,0,6.184,2.526,6.222,6.367
		C43.099,259.969,39.734,266.952,33.55,266.952z"/>
	<path fill="#004362" d="M106.68,132.586c0,1.053,0.026,2.414,0.063,3.414h16.667c-0.272-3-0.413-5.356-0.413-7.96
		c0-15.162,4.604-31.04,13.042-45.04H120.28C111.391,99,106.68,115.964,106.68,132.586z"/>
	<path fill="#004362" d="M181.265,83h-13.581c-11.066,12-17.359,27.084-17.359,41.034c0,4.102,0.521,7.966,1.537,11.966h13.104
		c-2.235-5-3.422-9.775-3.422-15.134c0-11.746,5.398-23.809,15.2-33.619C178.192,85.8,179.696,85,181.265,83z"/>
	<path fill="#004362" d="M130.356,128.04c0,2.622,0.159,4.96,0.451,7.96h13.485c-0.876-4-1.333-7.819-1.333-11.839
		c0-8.317,1.861-16.914,5.523-25.156C150.934,93.463,154.141,88,158.033,83h-13.302C135.461,97,130.356,112.847,130.356,128.04z"/>
	<path fill="#004362" d="M251.804,162.615c-14.226,14.228-31.28,23.828-48.515,27.618l-3.008,14.711
		c22.283-4.387,44.42-16.273,61.732-33.587c19.633-19.625,32.329-43.447,35.772-67.08c0.622-4.279,0.923-8.489,0.927-12.609
		c0-0.971-0.018-1.95-0.05-2.914c-0.692-19.201-8.218-36.395-22.189-50.37c-10.427-10.425-23.629-16.806-38.121-19.353
		l-3.336,16.299c10.758,2.666,20.333,7.961,28.08,15.695C291.679,79.624,286.828,127.599,251.804,162.615z"/>
	<path fill="#004362" d="M281.679,33.172c9.922,9.93,16.931,21.423,20.82,34.172c0.11,0.368,0.222,0.489,0.328,0.856L306.299,51
		h9.824c-4.647-11-11.696-22.116-20.988-31.424C286.129,10.573,275.486,4,263.805,0h-21.509l-2.46,11.9
		c3.488,0.615,6.902,1.391,10.255,2.42C262.289,18.11,272.924,24.417,281.679,33.172z"/>
	<path fill="#004362" d="M323.989,51h25.06c-4.76-19-14.169-36-27.834-51h-40.162c7.07,4,13.521,8.604,19.288,14.37
		C311.057,25.1,319.005,38,323.989,51z"/>
	<path fill="#004362" d="M203.931,34.396l3.155-15.552C185.563,22.577,163.569,34,145.131,51h20.089
		C177.125,43,190.382,36.848,203.931,34.396z"/>
	<path fill="#004362" d="M202.33,41.972C194.293,43.75,186.376,47,178.866,51h21.624L202.33,41.972z"/>
	<path fill="#004362" d="M82.731,126.652c-2.845,30.121,6.807,57.817,27.174,78.191c7.25,7.244,15.785,13.157,25.41,17.157h30.051
		l1.899-8.999c-17.309-2.667-32.547-10.431-44.648-22.527c-6.223-6.215-11.29-13.474-15.086-21.474H90.039l6.749-33h2.59
		c-0.038-1-0.064-2.357-0.064-3.417c0-16.629,4.356-33.583,12.611-49.583h-4.318l5.88-28.799
		C95.849,76.588,85.081,101.821,82.731,126.652z"/>
	<path fill="#004362" d="M176.337,169.283l0.02-0.283h-0.19h-28.413c7.416,7,16.139,11.609,25.739,13.83L176.337,169.283z"/>
	<path fill="#004362" d="M83.81,247.951c3.168,0,5.537,2.049,5.358,5.049h2.693c0.114-5-3.53-7.315-8.318-7.315
		c-7.568,0-11.912,7.465-11.848,14.334c0.051,5.435,3.124,8.936,8.597,8.936c5.333,0,8.648-2.955,10.223-7.955H87.83
		c-1.124,4-3.664,5.732-7.22,5.732c-4.184,0-6.171-2.898-6.209-6.823C74.343,254.169,77.36,247.951,83.81,247.951z"/>
	<path fill="#004362" d="M171.989,190.392c-11.747-2.667-22.337-8.779-31.15-17.585c-1.156-1.155-2.242-1.807-3.289-3.807h-21.74
		c3.212,6,7.238,11.547,12.014,16.329c11.047,11.047,25.028,18.065,40.939,20.438L171.989,190.392z"/>
	<polygon fill="#004362" points="210.134,269 212.84,269 217.38,247 214.68,247 	"/>
	<path fill="#004362" d="M260.882,240h-2.696l-1.345,7h-3.983l-0.491,2h3.983l-2.894,14.516c-0.205,0.977-0.291,1.751-0.291,2.207
		c0.023,2.653,2.106,3.147,4.099,3.147c0.901,0,1.844-0.102,2.746-0.18l0.442-2.366c-1.073,0.177-2.091,0.249-3.156,0.249
		c-1.028,0-1.413-0.763-1.413-1.537c-0.013-0.673,0.048-0.955,0.266-1.998L259.042,249h4.484l0.405-2h-4.405L260.882,240z"/>
	<polygon fill="#004362" points="219.126,238 216.433,238 215.533,242 218.229,242 	"/>
	<path fill="#004362" d="M271.305,222l5.042-24.56c-10.891,9.854-23.152,18.56-36.162,24.56H271.305z"/>
	<path fill="#004362" d="M232.918,246.267c-0.471-0.039-0.979,0.155-1.451,0.155c-3.935-0.04-6.271,1.578-7.942,5.578h-0.083
		l1.069-5h-2.438l-4.549,22h2.701l2.382-11.742c0.847-4.152,3.377-8.144,8.196-8.232c0.521,0,1.021-0.015,1.537-0.015
		L232.918,246.267z"/>
	<path fill="#004362" d="M242.508,248.153c3.037,0,5.42,1.847,5.214,4.847h2.705c0.045-5-3.319-7.116-7.943-7.116
		c-3.54,0-8.144,1.756-8.103,6.024c0.032,3.644,3.012,4.964,5.964,6.126c2.913,1.104,5.955,2.004,5.988,4.873
		c0.024,2.813-3.137,3.851-5.525,3.851c-3.111,0-6.299-0.758-6.271-5.758h-2.714c-0.196,6,4.136,8.018,8.373,8.018
		c4.182,0,8.865-1.699,8.829-6.653c-0.046-4.063-4.205-5.25-7.238-6.437c-2.496-0.997-4.682-1.994-4.705-4.045
		C237.049,248.858,240.173,248.153,242.508,248.153z"/>
	<path fill="#004362" d="M322.608,92h-16.542c0,4-0.315,8.819-0.992,13.441c-1.91,13.118-6.479,26.559-13.345,38.559h16.509
		c7.189-14,11.84-28.737,13.636-43.441C322.239,97.605,322.472,95,322.608,92z"/>
	<path fill="#004362" d="M365.756,0H331.03c12.555,15,21.194,32,25.601,51h26.854c-1.648-11-4.582-22.217-8.747-32.756
		C372.184,11.786,369.188,6,365.756,0z"/>
	<path fill="#004362" d="M374.206,0c2.754,5,5.217,10.313,7.376,15.781c2.616,6.608,4.764,13.452,6.423,20.423L395.423,0H374.206z"
		/>
	<path fill="#004362" d="M352.333,92h-22.361c-0.126,3-0.389,6.197-0.782,9.447c-1.767,14.4-6.107,28.553-12.763,42.553h22.719
		c6.741-15,11.069-31.226,12.746-47.169C352.081,95.136,352.224,93,352.333,92z"/>
	<path fill="#004362" d="M359.22,97.596C357.568,113.28,353.465,129,347.141,144h16.98l10.575-52h-14.981
		C359.589,94,359.42,95.653,359.22,97.596z"/>
	<path fill="#004362" d="M198.68,212.582L196.732,222h24.743c20.325-7,39.511-19.221,55.183-34.903
		c0.788-0.775,1.555-1.515,2.316-2.301l6.14-29.875c-5.131,7.582-11.111,14.794-17.886,21.568
		C248.124,195.599,223.417,208.406,198.68,212.582z"/>
	<polygon fill="#004362" points="134.813,238 133.925,242 136.611,242 137.513,238 	"/>
	<polygon fill="#004362" points="128.541,269 131.214,269 135.759,247 133.056,247 	"/>
	<path fill="#004362" d="M113.449,250.801c-0.038-3.881-4.711-4.97-7.695-4.97c-4.75,0-8.572,2.169-9.257,7.169h2.691
		c0.521-4,3.46-4.902,6.883-4.902c2.069,0,4.661,0.584,4.686,3.207c0.025,2.882-0.863,3.899-2.59,4.316
		c-1.715,0.422-4.204,0.214-7.028,0.655c-3.918,0.674-7.613,2.164-7.576,6.823c0.045,4.318,3.099,6.124,7.111,6.124
		c3.086,0,6.096-1.497,7.633-4.058l0.063,0.083c-0.031,0.381-0.063,0.813-0.05,1.206c0.038,1.447,0.864,2.388,2.35,2.388
		c0.723,0,1.625-0.075,2.229-0.215l0.362-2.147c-0.381,0.052-0.679,0.09-1.066,0.09c-0.648,0-1.41-0.115-1.423-0.895
		c-0.013-1.329,0.445-2.477,1.377-7.436C112.565,256.283,113.474,252.945,113.449,250.801z M109.055,260.495
		c-0.813,3.852-3.543,6.457-7.848,6.457c-2.566,0-4.914-1.144-4.946-3.964c-0.045-4.621,5.378-4.773,8.667-5.053
		c1.358-0.104,4-0.172,4.85-1.232l0.089,0.089L109.055,260.495z"/>
	<polygon fill="#004362" points="196.014,241 212.648,241 213.118,238 193.602,238 187.361,269 190.261,269 193.246,254 
		208.065,254 208.509,252 193.766,252 	"/>
	<path fill="#004362" d="M149.333,245.886c-7.872,0-12.253,6.92-12.184,14.144c0.058,5.525,3.226,9.195,8.889,9.195
		c8.172,0,12.179-7.266,12.102-14.705C158.091,249.098,154.464,245.886,149.333,245.886z M146.541,266.952
		c-4.482,0-6.647-2.907-6.692-7.174c-0.051-5.169,3.149-11.626,9.042-11.626c4.317,0,6.527,2.824,6.565,6.926
		C155.5,260.208,152.433,266.952,146.541,266.952z"/>
	<path fill="#004362" d="M181.957,92.512c-8.418,8.418-13.054,18.572-13.054,28.356c0,5.651,1.587,10.131,4.61,15.131h7.886
		l10.209-50.788C188.18,87.193,184.909,89.553,181.957,92.512z"/>
	<path fill="#004362" d="M173.753,246.113c-3.288,0-6.184,1.887-7.822,4.887h-0.063l0.711-4h-2.476l-4.535,22h2.705l2.318-11.525
		c1.143-5.601,4.654-9.217,8.552-9.217c2.387,0,4.616,1.013,4.647,3.927c0,0.725-0.127,1.716-0.273,2.403L174.567,269h2.698
		l2.902-14.345c0.216-1.042,0.31-1.924,0.304-2.623C180.433,247.818,177.595,246.113,173.753,246.113z"/>
	<path fill="#004362" d="M125.353,240h-2.698l-1.334,7h-3.975l-0.507,2h3.987l-2.908,14.513c-0.19,0.989-0.266,1.745-0.266,2.215
		c0.026,2.66,2.082,3.142,4.088,3.142c0.896,0,1.841-0.089,2.731-0.19l0.457-2.355c-1.067,0.163-2.096,0.25-3.169,0.25
		c-1.009,0-1.409-0.763-1.416-1.531c-0.013-0.693,0.063-0.969,0.286-1.998L123.512,249h4.502l0.394-2H124L125.353,240z"/>
</g>
</svg>
